<svg version="1.2" xmlns="http://www.w3.org/2000/svg" viewBox="0 0 1704 500" width="1704" height="500">
	<title>BugiBugi</title>
	<style>
		.s0 { fill: #1d211e } 
		.s1 { fill: #000000 } 
		.s2 { fill: #1d1d1b } 
	</style>
	<g id="Capa 1">
		<g id="&lt;Group&gt;">
			<g id="&lt;Group&gt;">
				<path id="&lt;Path&gt;" class="s0" d="m385.8 463.4c0.9-33.6 1.5-68.5-9.8-100.6-3.7-10.5-8.8-20.6-13.3-31.1l-1.6-3.7 4.1-0.3c8-0.7 22.4-1.3 30.3-2.3 10.4-2.3 10.7-12.8 11.9-21.5 3-22.3-0.7-45.2-7.6-66.6-0.6-1.7-1.6-3.4-2.9-4.7-3.3-3.1-5.9-3.7-10.8-3.9 0 0-30.8-2.3-30.8-2.3l-61.7-4.6-5.3-0.4c-0.1-2.6-0.8-34.7-0.9-38.3-0.1-2-0.2-6.1-0.3-8.1 0.6-7.9-3.6-22.9 7.5-24.8 12.6-0.6 25.3-2.3 37.9-4.2 15.1-2.7 31-4.5 44.3-11.6 0.8-0.5 1.3-1 1.2-0.9 0 0-0.2 0.3-0.3 0.8-0.2 0.7 0 1.6 0.2 2.1-0.7-0.8-1.6-1.3-2.8-2-8.5-4.5-19.4-7.2-29.1-9.5-20.8-4.9-42.3-8.4-63.8-11.7l-3.7-0.6c-1.4-2.6-3-6.4-4.7-9.1-5-8.4-13-20.3-18.2-28.7-5.4-8.6-12.9-23.5-22.8-24.5-4.3-0.7-9.6 1.8-13.2 4.7-2.5 2.3-5.4 4.5-8.9 5.1-4 0.8-8.2-0.1-11.5-2.4-1.8-1.3-3.7-2.8-5.6-3.7-12.7-6.9-22.1 6.8-27.8 16.9-2.2 3.6-8.7 13.7-11 17.5-5 7.8-11.9 17.8-15.5 26.2-22.7 3.4-45.5 7-67.5 12.2-10.7 2.8-23.4 5.2-31.9 11.5 0.4-0.6 0.3-2.4-0.1-2.9 3.5 3 9.5 4.7 14.3 6.1 10 2.9 20.6 4.8 31.2 6.4 12.3 1.9 24.8 3.5 37.2 4.2 8.7 0.3 8.7 10.6 8.3 16.7-0.4 13.8-0.9 40.5-1.3 54.5 0 0-5.4 0.4-5.4 0.4l-61.6 4.6c-2.9 0.5-34.6 2-37 3.3-3.5 1.2-6.3 4.1-7.5 7.7 0 0-2.2 7.1-2.2 7.1-6.6 23-8.7 47.2-3.6 70.6 1.9 8.6 9 11 17.3 11 7 0.5 20.1 1.4 27.2 1.9-4.9 11.7-10.8 23.2-15 34.9-11.3 32-10.6 66.9-9.8 100.5-2.6-33.9-4.7-69 5.5-102 3.4-11 8.3-21.4 12.4-31.9l2.5 4-15.5-0.6c-4.5-0.3-11-0.1-15.9-0.9-6.1-1.1-11.6-5.2-14.4-10.9-8.5-25.3-6.2-53.5 0.2-79 0 0 2.1-7.7 2.1-7.7 2.8-9.5 12.4-15.8 22-15.9 19.2-1.8 72.4-6.8 92.3-8.7 0 0-5.5 5.9-5.5 5.9 0-13.6 0.2-39.6 0.3-53 0-1.1-0.2-2.3-0.2-2.5 0 0 0-0.1 0 0.1 0.6 1.6 2.5 2.8 4.3 3 0 0 0.3 0 0.3 0 0.6 0-0.5 0-0.5 0-19.7-1.2-82.7-6.5-93.5-21.6-9.7-15 13.2-23.3 23.8-26.5 26.5-8.2 54.1-12.3 81.2-16.7 0 0-6 5.1-6 5.1 0.7-1.9 1.3-3.2 1.9-4.3 5.6-10.2 14.1-22.5 20.2-32.4 5-7.6 10-18 17.4-23.9 11.8-10.9 28.6-10.1 40.7 0 0 0 0.3 0.2 0.3 0.2h0.1c0 0-0.1 0-0.2 0 0 0-0.2 0.1-0.2 0.1 22.9-20.2 44.7-8 57.3 15.9 7.3 12.1 16.8 25.8 23.7 38.2 0.6 1.1 1.3 2.4 2 4.3l-6-5.1c21.7 3.4 43.3 6.9 65 12.2 11.3 3 21.9 5.5 32.7 11.3 10.8 5.6 13.5 17.2 2.4 24.2-15.5 8.6-33.3 10.3-50.2 13.2-10.9 1.5-21.9 2.8-33 3.6-1.5 0-4.7 0.2-6.1 0.2-0.1 0 0.4 0 0.5 0 0.6 0 1.3-0.2 1.9-0.5 1.2-0.6 2-1.6 2.4-2.5-0.3 1.4-0.3 4.4-0.2 6.3 0.1 5.6 0 11 0.1 16.4 0 0 0.1 32.8 0.1 32.8l-5.5-5.9 61.6 5.8 30.8 2.9c6.1 0.2 12.9 2.6 17 7.4 4.3 3.9 5.5 10.9 7.1 16.1 5.2 20.4 7.3 42 4 63-1.7 12.3-4.3 24.1-18.3 27-5 0.6-10.9 0.6-15.9 0.9 0 0-15.4 0.5-15.4 0.5l2.5-3.9c4.1 10.4 8.9 20.9 12.3 31.9 10.3 33 8.1 68 5.5 102z"/>
			</g>
			<g id="&lt;Group&gt;">
				<path id="&lt;Compound Path&gt;" fill-rule="evenodd" class="s1" d="m1183.2 294.6c0.9-0.7 1.1-12.6 1.1-15.6-0.1-10.5-3.5-58.3-6.3-65.8-0.8-1.9-1.2-4-2.7-5.6-23.9 5.8-40.7-16.9-16.9-30.9 38.6-22.9 138.8-24.2 123.5 43.5-1.2 4.9-7.2 19.8-7.2 19.8 0 0 27 10.5 28.3 29.8 2.7 40.9-28.6 59.6-64 62.8-22.9 2-58.2 0.8-69.9-22.9-7.8-15.6 12.5-13.8 14.1-15.1zm18.2-102.3c-2.6 2.3 3.2 49.2 5.9 49.2 8 0.2 52.9-11.3 52.1-34.6-1.2-30.7-50.4-17.1-58-14.6zm9.9 72.4c-3 1.9-1.7 16.7-2.8 43.9 9.9-0.8 63.8 4.4 69.9-25.3 7.3-35.5-52.1-28.3-67.1-18.6z"/>
				<path id="&lt;Path&gt;" class="s1" d="m1421.8 278.4c2.1-14.6 3.6-72.2 3.6-72.2 0.3-7 6.6-11.5 13.6-11.6 15.1-0.1 14.6 13.6 16 24.8 2.3 18.3 2.9 65.8-4 81.3-3.6 8.2-12.9 22.7-29.2 28.9-14.3 5.4-44.8 4.4-58.7-1.9-22.4-10-29.9-40.9-32.4-62.2-0.8-6.2-0.8-41.7 0.2-62 0.4-8.2 6.1-15.3 14.2-17.4 3.8-1 7.8 0 10.4 2.9 15.2 16.5 5 43.4 7.5 65.1 0.4 3.5 0.5 13.4 1.3 18.5 1.9 12.6 11.7 30.1 25.8 29.5 16.2-0.6 28.5-2 31.7-23.7z"/>
				<path id="&lt;Path&gt;" class="s2" d="m1511.3 236.9c-27.8 69.4 60.9 82.6 73.5 57.7 0-0.1-0.3 0.7 0 0 1.3-3.2 3.4-8.7 3.6-11.9-10.7-2.2-30.9 1.9-40.5-1-0.6-0.1-1.7-1.6-3.7-3.9-19.2-21.6 14.4-22.2 27.9-23.4 6.9-0.6 42.5-0.9 46.4 1.6 7.1 4.5 5.8 19.1 4.3 27.2-0.5 2.7-4.9 0.4-6.1 1.6-0.6 0.7-2.3 14.9-3.7 19.1-8.7 25.4-21.9 29.8-44.2 31.5-35.6 2.7-71.8-0.6-85.9-44.6-14.3-44.6 7.8-84.9 42.9-103.2 13.2-6.8 63.6-14.9 71.1-0.3 1.3 2.5 1.6 14.1 0.9 14.6-18.5 13.2-72.2-0.7-86.5 35z"/>
				<path id="&lt;Path&gt;" class="s2" d="m1691.4 187.6c1.5 1.7 4.7 24.2 4.9 28.6 1.7 27.8 1.9 77.1-0.6 104.5-0.2 2.4-1.4 10.2-2.6 11-5.1 3.5-30.4-0.7-31.4-11.2l0.6-126.7c5.3-7.6 23-13.1 29.1-6.2z"/>
			</g>
			<g id="&lt;Group&gt;">
				<path id="&lt;Compound Path&gt;" fill-rule="evenodd" class="s1" d="m557.3 294c0.9-0.7 1.1-12.6 1.1-15.5-0.1-10.5-3.5-58.4-6.3-65.8-0.8-2-1.2-4.1-2.7-5.6-23.9 5.7-40.7-16.9-16.9-31 38.6-22.8 138.8-24.2 123.5 43.5-1.1 4.9-7.2 19.9-7.2 19.9 0 0 27 10.5 28.3 29.7 2.7 40.9-28.6 59.6-64 62.8-22.9 2.1-58.2 0.8-69.9-22.9-7.8-15.6 12.5-13.8 14.1-15.1zm18.2-102.2c-2.6 2.2 3.2 49.2 5.9 49.1 8 0.2 52.9-11.3 52.1-34.6-1.2-30.7-50.4-17.1-58-14.5zm10 72.3c-3.1 2-1.8 16.7-2.9 44 10-0.8 63.8 4.3 70-25.4 7.2-35.4-52.1-28.2-67.1-18.6z"/>
				<path id="&lt;Path&gt;" class="s1" d="m795.9 277.8c2.1-14.5 3.6-72.2 3.6-72.2 0.3-6.9 6.6-11.4 13.6-11.5 15.1-0.2 14.6 13.5 16 24.8 2.3 18.3 2.9 65.7-4 81.3-3.6 8.1-12.9 22.6-29.2 28.8-14.3 5.4-44.8 4.4-58.7-1.8-22.4-10.1-29.9-41-32.4-62.2-0.8-6.3-0.8-41.7 0.2-62 0.4-8.3 6.1-15.3 14.2-17.5 3.8-1 7.8 0.1 10.5 2.9 15.1 16.5 5 43.4 7.5 65.2 0.3 3.4 0.4 13.3 1.2 18.4 1.9 12.7 11.7 30.2 25.8 29.6 16.2-0.7 28.6-2 31.7-23.8z"/>
				<path id="&lt;Path&gt;" class="s2" d="m885.4 236.4c-27.8 69.3 60.9 82.5 73.5 57.7 0-0.1-0.3 0.7 0 0 1.3-3.3 3.4-8.8 3.7-12-10.8-2.1-31 1.9-40.6-0.9-0.5-0.2-1.7-1.7-3.7-4-19.2-21.5 14.4-22.2 27.9-23.4 6.9-0.6 42.5-0.9 46.4 1.6 7.1 4.5 5.8 19.2 4.3 27.3-0.5 2.6-4.9 0.4-6.1 1.6-0.6 0.7-2.3 14.8-3.7 19-8.7 25.4-21.9 29.8-44.2 31.5-35.6 2.7-71.8-0.6-85.9-44.5-14.3-44.6 7.8-85 42.9-103.3 13.2-6.8 63.6-14.8 71.1-0.3 1.3 2.6 1.6 14.2 0.9 14.6-18.5 13.2-72.2-0.7-86.5 35.1z"/>
				<path id="&lt;Path&gt;" class="s2" d="m1065.5 187.1c1.5 1.7 4.7 24.1 5 28.6 1.6 27.7 1.8 77-0.7 104.4-0.2 2.5-1.4 10.2-2.6 11.1-5.1 3.5-30.4-0.7-31.4-11.3l0.6-126.7c5.3-7.5 23-13 29.1-6.1z"/>
			</g>
		</g>
	</g>
</svg>